<svg width="17" height="16" viewBox="0 0 17 16" fill="none" xmlns="http://www.w3.org/2000/svg">
<path d="M8.50303 4.40635C6.51553 4.40635 4.9124 6.00947 4.9124 7.99697C4.9124 9.98447 6.51553 11.5876 8.50303 11.5876C10.4905 11.5876 12.0937 9.98447 12.0937 7.99697C12.0937 6.00947 10.4905 4.40635 8.50303 4.40635ZM8.50303 10.3313C7.21865 10.3313 6.16865 9.28447 6.16865 7.99697C6.16865 6.70947 7.21553 5.6626 8.50303 5.6626C9.79053 5.6626 10.8374 6.70947 10.8374 7.99697C10.8374 9.28447 9.7874 10.3313 8.50303 10.3313V10.3313ZM13.078 4.25947C13.078 4.7251 12.703 5.09697 12.2405 5.09697C11.7749 5.09697 11.403 4.72197 11.403 4.25947C11.403 3.79697 11.778 3.42197 12.2405 3.42197C12.703 3.42197 13.078 3.79697 13.078 4.25947ZM15.4562 5.10947C15.403 3.9876 15.1468 2.99385 14.3249 2.1751C13.5062 1.35635 12.5124 1.1001 11.3905 1.04385C10.2343 0.978223 6.76865 0.978223 5.6124 1.04385C4.49365 1.09697 3.4999 1.35322 2.67803 2.17197C1.85615 2.99072 1.60303 3.98447 1.54678 5.10635C1.48115 6.2626 1.48115 9.72822 1.54678 10.8845C1.5999 12.0063 1.85615 13.0001 2.67803 13.8188C3.4999 14.6376 4.49053 14.8938 5.6124 14.9501C6.76865 15.0157 10.2343 15.0157 11.3905 14.9501C12.5124 14.897 13.5062 14.6407 14.3249 13.8188C15.1437 13.0001 15.3999 12.0063 15.4562 10.8845C15.5218 9.72822 15.5218 6.26572 15.4562 5.10947V5.10947ZM13.9624 12.1251C13.7187 12.7376 13.2468 13.2095 12.6312 13.4563C11.7093 13.822 9.52178 13.7376 8.50303 13.7376C7.48428 13.7376 5.29365 13.8188 4.3749 13.4563C3.7624 13.2126 3.29053 12.7407 3.04365 12.1251C2.67803 11.2032 2.7624 9.01572 2.7624 7.99697C2.7624 6.97822 2.68115 4.7876 3.04365 3.86885C3.2874 3.25635 3.75928 2.78447 4.3749 2.5376C5.29678 2.17197 7.48428 2.25635 8.50303 2.25635C9.52178 2.25635 11.7124 2.1751 12.6312 2.5376C13.2437 2.78135 13.7155 3.25322 13.9624 3.86885C14.328 4.79072 14.2437 6.97822 14.2437 7.99697C14.2437 9.01572 14.328 11.2063 13.9624 12.1251Z" fill="white"/>
</svg>
