<svg width="16" height="16" viewBox="0 0 16 16" fill="none" xmlns="http://www.w3.org/2000/svg">
<path d="M4.13375 14.0002H1.23125V4.6533H4.13375V14.0002ZM2.68094 3.3783C1.75281 3.3783 1 2.60955 1 1.68143C1 1.23561 1.1771 0.80806 1.49234 0.492823C1.80757 0.177587 2.23513 0.000488281 2.68094 0.000488281C3.12675 0.000488281 3.5543 0.177587 3.86954 0.492823C4.18478 0.80806 4.36188 1.23561 4.36188 1.68143C4.36188 2.60955 3.60875 3.3783 2.68094 3.3783ZM14.9969 14.0002H12.1006V9.45018C12.1006 8.3658 12.0787 6.97518 10.5916 6.97518C9.0825 6.97518 8.85125 8.1533 8.85125 9.37205V14.0002H5.95188V4.6533H8.73562V5.9283H8.77625C9.16375 5.19393 10.1103 4.41893 11.5225 4.41893C14.46 4.41893 15 6.3533 15 8.8658V14.0002H14.9969Z" fill="white"/>
</svg>
